# xmcd
#
# Track frame offsets:
#	150
#	13555
#	24782
#	37575
#	55795
#	69348
#	81618
#	92926
#	104311
#	116318
#	129625
#	142682
#	154372
#	170594
#	186192
#	200896
#
# Disc length: 2848 seconds
#
# Revision: 0
# Processed by: cddbd v1.4PL0 Copyright (c) Steve Scherf et al.
# Submitted via: EasyCDDAExtractor 4.6.0.1
#
DISCID=cf0b1e10
DTITLE=Teodoro and Sampaio - Seleção de Ouro
DYEAR=1999
DGENRE=sertanejo
TTITLE0=Vestida de seda
TTITLE1=Garanhão da amdrugada
TTITLE2=Amando escondido
TTITLE3=Paixão proibida
TTITLE4=Machucado de paixão
TTITLE5=Velho galã
TTITLE6=Passe livre
TTITLE7=A dormideira
TTITLE8=Espora do amor
TTITLE9=O machão chorou
TTITLE10=Se acasa cair
TTITLE11=Cantaram minha vizinha
TTITLE12=Tô apaixonado
TTITLE13=Cheirinho de mulher
TTITLE14=Água no leite
TTITLE15=Vírus da paixão
EXTD=
EXTT0=
EXTT1=
EXTT2=
EXTT3=
EXTT4=
EXTT5=
EXTT6=
EXTT7=
EXTT8=
EXTT9=
EXTT10=
EXTT11=
EXTT12=
EXTT13=
EXTT14=
EXTT15=
PLAYORDER=
